<svg xml:space="preserve" style="enable-background:new 0 0 1024 1024;" viewBox="0 0 1024 1024" y="0px" x="0px" xmlns:xlink="http://www.w3.org/1999/xlink" xmlns="http://www.w3.org/2000/svg" id="图层_1" version="1.1">
<style type="text/css">
	.st0{fill-rule:evenodd;clip-rule:evenodd;fill:#B3D8FF;}
	.st1{fill:#80C0FF;}
	.st2{fill:#EBF5FF;}
	.st3{fill-rule:evenodd;clip-rule:evenodd;fill:#80C0FF;}
	.st4{fill-rule:evenodd;clip-rule:evenodd;fill:#EBF5FF;}
	.st5{fill-rule:evenodd;clip-rule:evenodd;fill:url(#SVGID_1_);}
	.st6{fill-rule:evenodd;clip-rule:evenodd;fill:url(#SVGID_2_);}
	.st7{fill-rule:evenodd;clip-rule:evenodd;fill:url(#SVGID_3_);}
	.st8{fill-rule:evenodd;clip-rule:evenodd;fill:url(#SVGID_4_);}
	.st9{fill-rule:evenodd;clip-rule:evenodd;fill:url(#SVGID_5_);}
	.st10{fill-rule:evenodd;clip-rule:evenodd;fill:url(#SVGID_6_);}
	.st11{fill-rule:evenodd;clip-rule:evenodd;fill:url(#SVGID_7_);}
	.st12{fill-rule:evenodd;clip-rule:evenodd;fill:url(#SVGID_8_);}
	.st13{fill-rule:evenodd;clip-rule:evenodd;fill:url(#SVGID_9_);}
	.st14{fill-rule:evenodd;clip-rule:evenodd;fill:url(#SVGID_10_);}
	.st15{fill-rule:evenodd;clip-rule:evenodd;fill:url(#SVGID_11_);}
	.st16{fill-rule:evenodd;clip-rule:evenodd;fill:url(#SVGID_12_);}
	.st17{fill-rule:evenodd;clip-rule:evenodd;fill:url(#SVGID_13_);}
	.st18{fill-rule:evenodd;clip-rule:evenodd;fill:url(#SVGID_14_);}
	.st19{fill-rule:evenodd;clip-rule:evenodd;fill:url(#SVGID_15_);}
	.st20{fill-rule:evenodd;clip-rule:evenodd;fill:url(#SVGID_16_);}
	.st21{fill-rule:evenodd;clip-rule:evenodd;fill:url(#SVGID_17_);}
	.st22{fill-rule:evenodd;clip-rule:evenodd;fill:url(#Pants_1_);}
	.st23{fill-rule:evenodd;clip-rule:evenodd;fill:url(#SVGID_18_);}
	.st24{fill-rule:evenodd;clip-rule:evenodd;fill:url(#SVGID_19_);}
	.st25{fill-rule:evenodd;clip-rule:evenodd;fill:url(#SVGID_20_);}
	.st26{fill-rule:evenodd;clip-rule:evenodd;fill:url(#SVGID_21_);}
	.st27{fill-rule:evenodd;clip-rule:evenodd;fill:url(#SVGID_22_);}
	.st28{fill-rule:evenodd;clip-rule:evenodd;fill:url(#SVGID_23_);}
	.st29{fill-rule:evenodd;clip-rule:evenodd;fill:url(#SVGID_24_);}
	.st30{fill-rule:evenodd;clip-rule:evenodd;fill:url(#SVGID_25_);}
	.st31{fill-rule:evenodd;clip-rule:evenodd;fill:url(#SVGID_26_);}
	.st32{fill-rule:evenodd;clip-rule:evenodd;fill:url(#SVGID_27_);}
	.st33{fill-rule:evenodd;clip-rule:evenodd;fill:url(#SVGID_28_);}
	.st34{fill-rule:evenodd;clip-rule:evenodd;fill:url(#SVGID_29_);}
	.st35{fill-rule:evenodd;clip-rule:evenodd;fill:url(#SVGID_30_);}
	.st36{fill-rule:evenodd;clip-rule:evenodd;fill:url(#SVGID_31_);}
	.st37{fill-rule:evenodd;clip-rule:evenodd;fill:url(#SVGID_32_);}
</style>
<g id="图层_2_1_">
	<g id="Online_Transportation_Car">
		<g id="Background">
			<path d="M692.8,796.2c-37.3,22.1-87.8,69.8-62.9,114.6c19.6,35.1,115.9,11.1,141.9-5.6c45.1-28.9,87-82,59-117.2
				C807.9,759.2,732.5,772.7,692.8,796.2z M64.9,713.6c46.7,96,199.8,193.1,356.1,185.4c156.3-7.8,168.7-82.7,262.5-134.8
				c98.6-54.8,233.6-12.6,294.5-176.7c60.8-164.1-6.7-381.3-208.6-459.5s-423.5-1.7-523.3,74.6C85.1,325.8-44.2,489.6,64.9,713.6z" class="st0"></path>
			<rect height="113.1" width="179.8" class="st1" y="413.5" x="368.1"></rect>
			<rect height="30.1" width="47.9" class="st2" y="413.5" x="434"></rect>
			<path d="M102.1,526.6H25.6c3.5-39.3,14.3-77.7,31.8-113.1h44.7L102.1,526.6z" class="st3"></path>
			<rect height="199.2" width="179.8" class="st1" y="544.1" x="368.1"></rect>
			<path d="M102.1,743.4H82.8C76,733.9,70,724,64.9,713.6c-29.6-60.8-41.6-117.1-40.3-169.4h77.4V743.4z" class="st3"></path>
			<path d="M588,95.2c15.3,0,30.7,0.6,46.2,1.9v206.7h328.3c6.6,13.5,12.3,27.5,17.2,41.7H634.2v397.8h101.6
				c-18.2,4.9-35.7,11.9-52.3,20.8c-19.9,11.2-38.6,24.5-55.7,39.5H140.4c-21.8-17.5-41.2-37.8-57.6-60.3h95V345.6H99.2
				c10.7-14.3,22.2-28.1,34.5-41.7h44v-44.1c14.9-13.7,30.3-26.9,46.2-39.7v83.8H588L588,95.2L588,95.2z M681.1,803.7
				c4-2.7,7.9-5.3,11.7-7.5c39.7-23.5,115.1-36.9,138-8.2c3.7,4.6,6.4,10,7.8,15.7H681.1z M588,345.6h-364v397.8H588L588,345.6z" class="st4"></path>
			<path d="M838.6,803.7c8.4,33.8-28.1,76.6-66.8,101.5c-26,16.7-122.3,40.7-141.9,5.6c-22.4-40.2,16.1-82.8,51.2-107.1
				H838.6z M627.7,803.7c-52,44.2-87.4,89.4-206.8,95.3c-105.6,5.2-209.7-37.5-280.6-95.3H627.7z" class="st0"></path>
			<rect height="113.1" width="179.8" class="st1" y="190.7" x="675.6"></rect>
			<rect height="30.1" width="47.9" class="st2" y="190.7" x="741.6"></rect>
			<rect height="113.1" width="179.8" class="st1" y="190.7" x="368.1"></rect>
			<rect height="30.1" width="47.9" class="st2" y="190.7" x="434"></rect>
		</g>
		<g id="Box-Top">
			
				<linearGradient gradientTransform="matrix(0 460.09 -256.05 0 -209657.8281 293318.9062)" y2="-821.6942" x2="-636.0795" y1="-821.6942" x1="-636.6754" gradientUnits="userSpaceOnUse" id="SVGID_1_">
				<stop style="stop-color:#FFCA80" offset="0"></stop>
				<stop style="stop-color:#D46E11" offset="1"></stop>
			</linearGradient>
			<path d="M845.5,400H637.9c-5.2,0-9.5,4.2-9.5,9.5c0,0,0,0,0,0v256.4h217.2V400z" class="st5"></path>
			
				<linearGradient gradientTransform="matrix(0 140.36 -37.65 0 -29918.3789 90207.3594)" y2="-815.1958" x2="-638.1315" y1="-815.1958" x1="-638.7273" gradientUnits="userSpaceOnUse" id="SVGID_2_">
				<stop style="stop-color:#FFFFFF" offset="0"></stop>
				<stop style="stop-color:#CCEEFF" offset="1"></stop>
			</linearGradient>
			<path d="M800.4,557.6c0-1.5-1.2-2.7-2.7-2.7h-48c-1.5,0-2.7,1.2-2.7,2.7v68.8c0,1.5,1.2,2.7,2.7,2.7h48
				c1.5,0,2.7-1.2,2.7-2.7V557.6z" class="st6"></path>
			
				<linearGradient gradientTransform="matrix(0 460.09 -214.08 0 -174837.7969 293318.9062)" y2="-820.9807" x2="-636.0795" y1="-820.9807" x1="-636.6754" gradientUnits="userSpaceOnUse" id="SVGID_3_">
				<stop style="stop-color:#FFDBA9" offset="0"></stop>
				<stop style="stop-color:#D78842" offset="1"></stop>
			</linearGradient>
			<path d="M993.7,400c11.3,63.5,6,128.9-15.7,187.6c-12.6,34.1-28.5,59.3-46.6,78.4h-85.8c-5.2,0-9.5-4.3-9.5-9.5
				V409.4c0-5.2,4.3-9.5,9.5-9.5L993.7,400z" class="st7"></path>
			
				<linearGradient gradientTransform="matrix(0 110.43 -50.42 0 -40102.1953 70906.2031)" y2="-814.4769" x2="-637.8868" y1="-814.4769" x1="-638.4826" gradientUnits="userSpaceOnUse" id="SVGID_4_">
				<stop style="stop-color:#FFFFFF" offset="0"></stop>
				<stop style="stop-color:#CCEEFF" offset="1"></stop>
			</linearGradient>
			<path d="M993.7,400c3.4,19.3,5.3,38.8,5.7,58.4H934c-3.3,0-5.9-2.7-5.9-5.9c0,0,0,0,0,0V400H993.7z" class="st8"></path>
		</g>
		<g id="Box-Bottom">
			
				<linearGradient gradientTransform="matrix(0 454.94 -256.05 0 -209706.0156 290490.875)" y2="-821.7705" x2="-636.4799" y1="-821.7705" x1="-637.0757" gradientUnits="userSpaceOnUse" id="SVGID_5_">
				<stop style="stop-color:#FFCA80" offset="0"></stop>
				<stop style="stop-color:#D46E11" offset="1"></stop>
			</linearGradient>
			<path d="M807.4,876.1c-10.8,11-22.7,20.7-35.7,29c-26,16.7-122.3,40.7-141.9,5.6c-24.9-44.7,25.6-92.5,62.9-114.6
				c30.5-18,82-30.1,114.6-21.8L807.4,876.1z M599.8,828.3V665.9h217.2l-9.5,60.8c-42.5,9.7-86,16.4-124,37.5
				C647.9,783.9,624.1,806.9,599.8,828.3L599.8,828.3z" class="st9"></path>
			
				<linearGradient gradientTransform="matrix(0 140.36 -37.65 0 -29966.5664 90655.3594)" y2="-815.7159" x2="-639.4335" y1="-815.7159" x1="-640.0294" gradientUnits="userSpaceOnUse" id="SVGID_6_">
				<stop style="stop-color:#FFFFFF" offset="0"></stop>
				<stop style="stop-color:#CCEEFF" offset="1"></stop>
			</linearGradient>
			<path d="M771.8,823.6c0-1.5-1.2-2.7-2.6-2.7h-48c-1.5,0-2.7,1.2-2.7,2.7v68.9c0,1.5,1.2,2.7,2.7,2.7h48
				c1.5,0,2.6-1.2,2.6-2.7V823.6z" class="st10"></path>
			
				<linearGradient gradientTransform="matrix(0 363.79 -162.32 0 -132335.5156 232510.6875)" y2="-820.6312" x2="-636.7325" y1="-820.6312" x1="-637.3283" gradientUnits="userSpaceOnUse" id="SVGID_7_">
				<stop style="stop-color:#FFDBA9" offset="0"></stop>
				<stop style="stop-color:#D78842" offset="1"></stop>
			</linearGradient>
			<path d="M807.4,774.4c9.9,2.5,18,6.9,23.4,13.6c20.2,25.3,4.1,59.9-23.4,88.1V774.4z M931.3,665.9
				c-35.3,37.2-79.1,50.6-123.9,60.8v-51.3c0-5.2,4.2-9.5,9.5-9.5L931.3,665.9z" class="st11"></path>
			
				<linearGradient gradientTransform="matrix(0 49.84 -22.54 0 -17247.5742 32813.0156)" y2="-805.8105" x2="-644.4072" y1="-805.8105" x1="-645.0031" gradientUnits="userSpaceOnUse" id="SVGID_8_">
				<stop style="stop-color:#FFFFFF" offset="0"></stop>
				<stop style="stop-color:#CCEEFF" offset="1"></stop>
			</linearGradient>
			<path d="M931.3,665.9c-9.5,10-20.2,18.9-31.9,26.3v-26.3H931.3z" class="st12"></path>
		</g>
		<g id="Person">
			<g id="Arm-RIght">
				
					<linearGradient gradientTransform="matrix(7.4 119.91 -119.91 7.4 -93059.6016 83332.4062)" y2="-821.1454" x2="-638.7645" y1="-821.1454" x1="-639.3604" gradientUnits="userSpaceOnUse" id="SVGID_9_">
					<stop style="stop-color:#FFC6B8" offset="0"></stop>
					<stop style="stop-color:#FFB8A6" offset="0.46"></stop>
					<stop style="stop-color:#FF9678" offset="1"></stop>
				</linearGradient>
				<path d="M630.7,604l32-22.4c5.8-4,13.3-4.7,19.7-1.7l26.4,12.3c10.9,5.1,15.6,18.1,10.6,29
					c-0.1,0.2-0.2,0.5-0.3,0.7c-7.1,13.8-16.1,31.6-22.1,43.2c-3.8,7.3-11.3,12-19.6,12h-46.6V604z" class="st13"></path>
				
					<linearGradient gradientTransform="matrix(-133.76 502.72 -647.77 -103.81 -617382.9375 235063.3125)" y2="-822.5284" x2="-636.0052" y1="-822.4787" x1="-636.601" gradientUnits="userSpaceOnUse" id="SVGID_10_">
					<stop style="stop-color:#FFC44C" offset="0"></stop>
					<stop style="stop-color:#FF8618" offset="1"></stop>
				</linearGradient>
				<path d="M630.7,676.9L457,724.7l-36.7-315.4l15.2,4.6c17.6,5.3,31.4,19,36.9,36.5c15.9,50.9,48,153.4,48,153.4
					h110.3L630.7,676.9L630.7,676.9z" class="st14"></path>
				<g id="Scanner-Top">
					
						<linearGradient gradientTransform="matrix(-32.46 71.9 -207.87 -93.84 -190709.4375 -30567.3301)" y2="-821.132" x2="-638.4203" y1="-821.132" x1="-639.0161" gradientUnits="userSpaceOnUse" id="SVGID_11_">
						<stop style="stop-color:#FF6666" offset="0"></stop>
						<stop style="stop-color:#F4256B" offset="1"></stop>
					</linearGradient>
					<path d="M763.8,568.4l-81.8-37c-4.1-1.8-9,0-10.9,4.1c-3.6,7.9-9.1,20.2-12.6,28c-1.8,4.1,0,9,4.1,10.9l81.8,37
						L763.8,568.4z" class="st15"></path>
					
						<linearGradient gradientTransform="matrix(-32.65 72.32 -23.72 -10.71 -39221.168 38147.1836)" y2="-806.5709" x2="-638.3418" y1="-806.5709" x1="-638.9211" gradientUnits="userSpaceOnUse" id="SVGID_12_">
						<stop style="stop-color:#396FC6" offset="0"></stop>
						<stop style="stop-color:#1F4B93" offset="1"></stop>
					</linearGradient>
					<path d="M780.9,585.2c1.9-4.2,0-9-4.1-10.9l-13-5.8l-19.4,43l13,5.8c4.1,1.8,9,0,10.9-4.1
						C771.8,605.3,777.4,593,780.9,585.2L780.9,585.2z" class="st16"></path>
				</g>
				<g id="Scanner-Bottom">
					
						<linearGradient gradientTransform="matrix(-2.27 90.96 -90.96 -2.27 -75436.5547 57059.0117)" y2="-820.5281" x2="-640.2317" y1="-820.5281" x1="-640.8275" gradientUnits="userSpaceOnUse" id="SVGID_13_">
						<stop style="stop-color:#FF6666" offset="0"></stop>
						<stop style="stop-color:#F4256B" offset="1"></stop>
					</linearGradient>
					<path d="M659.3,616.9l-40.1,62.7c-0.8,1.3-1.1,2.8-0.8,4.3c0.3,1.5,1.2,2.8,2.5,3.6l18.1,11.6
						c1.3,0.8,2.8,1.1,4.3,0.8c1.5-0.3,2.8-1.2,3.6-2.5l40.1-62.7L659.3,616.9L659.3,616.9z" class="st17"></path>
					
						<linearGradient gradientTransform="matrix(22.19 14.2 -16.08 25.13 1678.587 30879.4473)" y2="-832.8555" x2="-650.9544" y1="-832.8555" x1="-651.5508" gradientUnits="userSpaceOnUse" id="SVGID_14_">
						<stop style="stop-color:#396FC6" offset="0"></stop>
						<stop style="stop-color:#1F4B93" offset="1"></stop>
					</linearGradient>
					<path d="M623.4,689.1l-11,17.2c-1.6,2.5-0.9,5.8,1.6,7.4c0,0,0,0,0,0l4.2,2.7c2.5,1.6,5.8,0.8,7.4-1.6
						c0,0,0,0,0,0l11-17.1L623.4,689.1L623.4,689.1z" class="st18"></path>
				</g>
				
					<linearGradient gradientTransform="matrix(8.77 96.52 -151.2 5.6 -117965.4453 67008.8281)" y2="-821.8242" x2="-639.7889" y1="-821.8407" x1="-640.3848" gradientUnits="userSpaceOnUse" id="SVGID_15_">
					<stop style="stop-color:#FFC6B8" offset="0"></stop>
					<stop style="stop-color:#FFB8A6" offset="0.46"></stop>
					<stop style="stop-color:#FF9678" offset="1"></stop>
				</linearGradient>
				<path d="M708.9,595.5l-7,8.3c-2.5,3-6.4,4.5-10.3,4l-20.5-2.7c-5.2-0.7-10.3,1.7-13.1,6.1L643.5,634
					c-5.5,8.6-3,20,5.6,25.5c1.3,0.9,2.8,1.5,4.3,2l28.7,9.3c5.8,1.9,12.1-0.8,14.9-6.2l25.2-49.3c3-5.9,0.7-13.1-5.2-16
					c-0.2-0.1-0.3-0.2-0.5-0.2L708.9,595.5L708.9,595.5z" class="st19"></path>
			</g>
			<g id="Shirt">
				
					<linearGradient gradientTransform="matrix(0 524.98 -749.11 0 -616082.125 334822.2812)" y2="-822.814" x2="-636.181" y1="-822.814" x1="-636.7769" gradientUnits="userSpaceOnUse" id="SVGID_16_">
					<stop style="stop-color:#FF6666" offset="0"></stop>
					<stop style="stop-color:#F4256B" offset="1"></stop>
				</linearGradient>
				<path d="M457,839.2H191.5c-19.9-11.7-38.8-25.1-56.5-40V575.8l1.1-50.7H457V839.2z" class="st20"></path>
				
					<linearGradient gradientTransform="matrix(0 323.49 -659.32 0 -542259.1875 206323.7656)" y2="-822.8568" x2="-636.1813" y1="-822.8568" x1="-636.7771" gradientUnits="userSpaceOnUse" id="SVGID_17_">
					<stop style="stop-color:#FFFFFF" offset="0"></stop>
					<stop style="stop-color:#CCEEFF" offset="1"></stop>
				</linearGradient>
				<path d="M457,525.1v-76.1c0-16.9-11.1-31.9-27.3-36.7l-94.6-28.5l-110.4,2l-105.6,35.5
					c-19.8,6.7-34.8,23.1-39.6,43.4c-1.7,7.4-3.1,13.1-3.1,13.1V525L457,525.1z" class="st21"></path>
			</g>
			
				<linearGradient gradientTransform="matrix(0 101.14 -307.64 0 -252835.1406 65737.625)" y2="-822.908" x2="-641.0699" y1="-822.908" x1="-641.6653" gradientUnits="userSpaceOnUse" id="Pants_1_">
				<stop style="stop-color:#396FC6" offset="0"></stop>
				<stop style="stop-color:#1F4B93" offset="1"></stop>
			</linearGradient>
			<path d="M191.5,839.2H457v56.5c-11.1,1.5-23.2,2.6-36.1,3.3C338.6,903.1,257,878,191.5,839.2z" class="st22" id="Pants"></path>
			<g id="Collar">
				
					<linearGradient gradientTransform="matrix(-8.8 57.44 -57.44 -8.8 -52575.6602 29931.7559)" y2="-822.7161" x2="-639.7595" y1="-822.7161" x1="-640.3553" gradientUnits="userSpaceOnUse" id="SVGID_18_">
					<stop style="stop-color:#FFC44C" offset="0"></stop>
					<stop style="stop-color:#FF8618" offset="1"></stop>
				</linearGradient>
				<path d="M328.1,420.5l-32-7l7.3-10.5L328.1,420.5z" class="st23"></path>
				
					<linearGradient gradientTransform="matrix(-3.94 58.92 -25.7 -9.02 -23322.1777 30677.5449)" y2="-822.5835" x2="-639.7142" y1="-822.9144" x1="-640.31" gradientUnits="userSpaceOnUse" id="SVGID_19_">
					<stop style="stop-color:#FFC44C" offset="0"></stop>
					<stop style="stop-color:#FF8618" offset="1"></stop>
				</linearGradient>
				<path d="M328.1,420.5l14.3-9.9l-7.2-8.1L328.1,420.5L328.1,420.5z" class="st24"></path>
				
					<linearGradient gradientTransform="matrix(-12.61 85.25 -61.08 -17.6 -57925.1133 40354.1953)" y2="-822.1622" x2="-638.312" y1="-822.2615" x1="-638.9078" gradientUnits="userSpaceOnUse" id="SVGID_20_">
					<stop style="stop-color:#FFC44C" offset="0"></stop>
					<stop style="stop-color:#FF8618" offset="1"></stop>
				</linearGradient>
				<path d="M335.2,402.5l16.9,18.9c0.5,0.5,1.2,0.7,1.8,0.4c0.7-0.2,1.1-0.9,1.1-1.6v-15.8c0-1.8-0.5-3.6-1.5-5.1
					l-18.3-28.3V402.5L335.2,402.5z" class="st25"></path>
				
					<linearGradient gradientTransform="matrix(-52.02 114.87 -251.92 -23.72 -240149.2969 54153.2227)" y2="-822.6621" x2="-637.5352" y1="-822.5629" x1="-638.131" gradientUnits="userSpaceOnUse" id="SVGID_21_">
					<stop style="stop-color:#FFC44C" offset="0"></stop>
					<stop style="stop-color:#FF8618" offset="1"></stop>
				</linearGradient>
				<path d="M248.9,364.4c-1.4-1-3.2-0.8-4.4,0.3l-19.3,18.6c-1.8,1.7-1.8,4.4-0.2,6.2c0.1,0.2,0.3,0.3,0.5,0.4
					l52,41.7c2,1.6,5,1.3,6.7-0.8c0.1-0.1,0.1-0.2,0.2-0.2c6-8.6,19.1-27.6,19.1-27.6L248.9,364.4L248.9,364.4z" class="st26"></path>
			</g>
			<g id="Board">
				
					<linearGradient gradientTransform="matrix(-144.53 314.72 -231.96 0 -282289.5938 201241.8438)" y2="-821.9185" x2="-636.7719" y1="-821.5544" x1="-637.3677" gradientUnits="userSpaceOnUse" id="SVGID_22_">
					<stop style="stop-color:#FFFFFF" offset="0"></stop>
					<stop style="stop-color:#CCEEFF" offset="1"></stop>
				</linearGradient>
				<path d="M522.5,641.2c2.3-4.9,0.1-8.9-4.8-8.9H358.3c-4.9,0-10.7,4-12.9,8.9L270,805.4c-2.3,4.9-0.1,8.9,4.8,8.9
					h159.4c5,0,10.7-4,12.9-8.9L522.5,641.2z" class="st27"></path>
				
					<linearGradient gradientTransform="matrix(-17.21 37.47 -84.94 0 -80325.0312 24867.7617)" y2="-819.8379" x2="-646.4828" y1="-819.7219" x1="-647.0621" gradientUnits="userSpaceOnUse" id="SVGID_23_">
					<stop style="stop-color:#396FC6" offset="0"></stop>
					<stop style="stop-color:#1F4B93" offset="1"></stop>
				</linearGradient>
				<path d="M478.3,624.6c0.9-1.9,0-3.3-1.8-3.3h-66.6c-2.1,0.2-3.9,1.4-4.9,3.3l-7.2,15.6c-0.9,1.9,0,3.3,1.8,3.3
					h66.6c2.1-0.2,3.9-1.4,4.9-3.3L478.3,624.6z" class="st28"></path>
			</g>
			<g id="Arm-Left">
				
					<linearGradient gradientTransform="matrix(-151.06 574.11 -731.54 -118.55 -697958.25 268369.4688)" y2="-822.938" x2="-636.0448" y1="-822.8884" x1="-636.6241" gradientUnits="userSpaceOnUse" id="SVGID_24_">
					<stop style="stop-color:#FFC44C" offset="0"></stop>
					<stop style="stop-color:#FF8618" offset="1"></stop>
				</linearGradient>
				<path d="M251.4,707.7L138,661.2l32.9-129.4c9.6-37.5-6.4-76.9-39.3-97.2l-5.6-3.5c-8.8-5.4-20.1-4.5-27.9,2.3l0,0
					c-9.1,8-15.5,18.6-18.3,30.4c-9.3,39.1-31.6,133.1-47.7,201c-9.5,39.9,15.2,79.8,55,89.3c1.6,0.4,3.1,0.7,4.7,1l159.6,27.1
					V707.7z" class="st29"></path>
				
					<linearGradient gradientTransform="matrix(10.35 129.57 -178.56 7.51 -140126.8438 89763.1406)" y2="-823.4357" x2="-639.0034" y1="-823.4523" x1="-639.5992" gradientUnits="userSpaceOnUse" id="SVGID_25_">
					<stop style="stop-color:#FFC6B8" offset="0"></stop>
					<stop style="stop-color:#FFB8A6" offset="0.46"></stop>
					<stop style="stop-color:#FF9678" offset="1"></stop>
				</linearGradient>
				<path d="M234.7,762.1c0.5,11.6,10.1,20.8,21.7,20.8H313c5,0,9.6-3,11.6-7.6l20.4-46.1c2.6-5.8,0.8-12.6-4.3-16.4
					l-20.1-15.1l9.2-20.1l-42.5,6.9c-2.1,0.3-4.1,1.1-5.8,2.4l-30,21C238.9,717.6,233.6,735.9,234.7,762.1L234.7,762.1z" class="st30"></path>
				
					<linearGradient gradientTransform="matrix(-19.37 82.08 -61.86 -14.6 -63317.3164 41091.5508)" y2="-824.3444" x2="-640.0264" y1="-824.3444" x1="-640.6057" gradientUnits="userSpaceOnUse" id="SVGID_26_">
					<stop style="stop-color:#FFFFFF" offset="0"></stop>
					<stop style="stop-color:#CCEEFF" offset="1"></stop>
				</linearGradient>
				<path d="M109.8,547.2c0.8-3.2-1.2-6.5-4.5-7.3c0,0,0,0,0,0L64,530.2l-11.2,47.4l41.4,9.7c3.2,0.8,6.5-1.2,7.3-4.5
					c0,0,0,0,0,0L109.8,547.2z" class="st31"></path>
			</g>
			<g id="Head">
				
					<linearGradient gradientTransform="matrix(0 132.37 -110.58 0 -90746.8984 84592.2188)" y2="-823.2322" x2="-636.6572" y1="-823.2322" x1="-637.253" gradientUnits="userSpaceOnUse" id="SVGID_27_">
					<stop style="stop-color:#396FC6" offset="0"></stop>
					<stop style="stop-color:#1F4B93" offset="1"></stop>
				</linearGradient>
				<path d="M261.2,318.4c0,0-30.4-24-21-78.7l93.6,0.9l-18.7,73.8L261.2,318.4z" class="st32"></path>
				
					<linearGradient gradientTransform="matrix(2.43 278.89 -278.89 2.43 -227609.2031 179807.125)" y2="-822.83" x2="-636.114" y1="-822.83" x1="-636.7098" gradientUnits="userSpaceOnUse" id="SVGID_28_">
					<stop style="stop-color:#FFC6B8" offset="0"></stop>
					<stop style="stop-color:#FFB8A6" offset="0.46"></stop>
					<stop style="stop-color:#FF9678" offset="1"></stop>
				</linearGradient>
				<path d="M311.9,270.7c4.6-8,8.4-16.4,11.3-25.1l76.7,4.8c0,0-2.4,47.8-3.3,65.9c-0.2,4.2-2.7,7.9-6.5,9.6l-6.6,3
					c0,0-2.2,11-4.4,22.7c-2.9,15.1-17.6,24.9-32.7,22c-0.1,0-0.3-0.1-0.4-0.1l-10.8-2.3v31.4l-7.1,18l-81.5-57.8l14.6-44.4
					c9-3,17.5-7.6,25-13.5c-10.2-6.2-13.4-19.4-7.2-29.6c6.2-10.2,19.4-13.4,29.6-7.2C309.8,268.9,310.9,269.8,311.9,270.7
					L311.9,270.7z" class="st33"></path>
				<g id="Caps">
					
						<linearGradient gradientTransform="matrix(-20.74 138.01 -302.69 -45.49 -261953.7344 50629.0547)" y2="-822.8317" x2="-636.2728" y1="-822.8317" x1="-636.8686" gradientUnits="userSpaceOnUse" id="SVGID_29_">
						<stop style="stop-color:#FF6666" offset="0"></stop>
						<stop style="stop-color:#F4256B" offset="1"></stop>
					</linearGradient>
					<path d="M382.7,176.6l-62.2-9.4c-37.5-5.6-72.5,20.2-78.2,57.7c0,0,0,0,0,0l-2.2,14.6l130.1,19.6L382.7,176.6z" class="st34"></path>
					
						<linearGradient gradientTransform="matrix(-21.47 142.89 -100.18 -15.06 -95697.3047 78789.0625)" y2="-822.4849" x2="-636.1826" y1="-822.4849" x1="-636.7784" gradientUnits="userSpaceOnUse" id="SVGID_30_">
						<stop style="stop-color:#FFFFFF" offset="0"></stop>
						<stop style="stop-color:#CCEEFF" offset="1"></stop>
					</linearGradient>
					<path d="M406,212.7c2.7-17.6-9.4-34-27-36.7c0,0,0,0-0.1,0l0,0c-19.8-3-38.7,9.3-44,28.6
						c-6.1,22.2-13,47.3-13,47.3l76.5,11.6L406,212.7z" class="st35"></path>
					
						<linearGradient gradientTransform="matrix(-80.71 26.63 -362.11 -62.42 -348841.25 -34034.4961)" y2="-821.939" x2="-639.2034" y1="-821.8066" x1="-639.7992" gradientUnits="userSpaceOnUse" id="SVGID_31_">
						<stop style="stop-color:#FFC44C" offset="0"></stop>
						<stop style="stop-color:#FF8618" offset="1"></stop>
					</linearGradient>
					<path d="M440,269.7c2-13.1-7.1-25.4-20.2-27.4c0,0,0,0,0,0l-49.5-7.4c-17.9-2.7-36.1,3.7-48.3,17l0,0L440,269.7z" class="st36"></path>
				</g>
				
					<linearGradient gradientTransform="matrix(-42.79 -6.82 6.82 -42.79 -21280.2324 -38925.1367)" y2="-817.2744" x2="-634.9548" y1="-817.2744" x1="-635.5341" gradientUnits="userSpaceOnUse" id="SVGID_32_">
					<stop style="stop-color:#FF653F" offset="0"></stop>
					<stop style="stop-color:#FF7A55" offset="1"></stop>
				</linearGradient>
				<path d="M335.2,371.1l-24.2-5.1c5.4,10.1,13.9,18.3,24.2,23.2V371.1z" class="st37"></path>
			</g>
		</g>
	</g>
</g>
</svg>
